# xmcd
#
# Track frame offsets:
#	150
#	15497
#	30367
#	46195
#	60580
#	74528
#	84237
#	106763
#	122118
#	142316
#	159156
#	175434
#	192623
#	210594
#	227015
#
# Disc length: 3338 seconds
#
# Revision: 2
# Processed by: cddbd v1.5.2PL0 Copyright (c) Steve Scherf et al.
# Submitted via: audiograbber 1.83.01
#
DISCID=c60d080f
DTITLE=Black Keys, The - Brothers
DYEAR=2010
DGENRE=Rock
TTITLE0=Everlasting Light
TTITLE1=Next Girl
TTITLE2=Tighten Up
TTITLE3=Howlin' For You
TTITLE4=She's Long Gone
TTITLE5=Black Mud
TTITLE6=The Only One
TTITLE7=Too Afraid To Love You
TTITLE8=Ten Cent Pistol
TTITLE9=Sinister Kid
TTITLE10=The Go Getter
TTITLE11=I'm Not The One
TTITLE12=Unknown Brother
TTITLE13=Never Gonna Give You Up
TTITLE14=These Days
EXTD=
EXTT0=
EXTT1=
EXTT2=
EXTT3=
EXTT4=
EXTT5=
EXTT6=
EXTT7=
EXTT8=
EXTT9=
EXTT10=
EXTT11=
EXTT12=
EXTT13=
EXTT14=
PLAYORDER=
